<?xml version="1.0" encoding="UTF-8"?> <svg xmlns="http://www.w3.org/2000/svg" viewBox="0 0 96 96"><circle cx="48" cy="48" fill="#fff" r="48"></circle><g fill="#5b9bd3"><path d="m25.5 40.57a4.8 4.8 0 0 0 -.5-2.07l18.15-13.24a5 5 0 0 0 3.35 1.31 5 5 0 0 0 2.52-.7l6.3 6a5 5 0 1 0 8.36 0l6.31-6a5 5 0 1 0 -1.5-1.34l-6.22 5.88a5 5 0 0 0 -5.54 0l-6.22-5.88a5 5 0 1 0 -8.51-.88l-18.15 13.24a5 5 0 1 0 1.65 3.68zm47-22a3 3 0 1 1 -3 3 3 3 0 0 1 3-3zm-13 13a3 3 0 1 1 -3 3 3 3 0 0 1 3-3zm-13-13a3 3 0 1 1 -3 3 3 3 0 0 1 3-3zm-26 25a3 3 0 1 1 3-3 3 3 0 0 1 -3 3z"></path><path d="m75.5 62.76v-3.19a7 7 0 1 0 -14 0v3.19a3 3 0 0 0 -2 2.81v10a3 3 0 0 0 3 3h12a3 3 0 0 0 3-3v-10a3 3 0 0 0 -2-2.81zm-7-8.19a5 5 0 0 1 5 5v3h-10v-3a5 5 0 0 1 5-5zm7 21a1 1 0 0 1 -1 1h-12a1 1 0 0 1 -1-1v-10a1 1 0 0 1 1-1h12a1 1 0 0 1 1 1z"></path><path d="m68.5 66.57a3 3 0 0 0 -1 5.82v2.18h2v-2.18a3 3 0 0 0 -1-5.82zm0 4a1 1 0 1 1 1-1 1 1 0 0 1 -1 1z"></path><path d="m61.77 41.16a20.9 20.9 0 0 1 5.23 9.64l1.94-.46a23 23 0 0 0 -5.67-10.55z"></path><path d="m49.64 76.33a28 28 0 0 0 5.57-7.26c.63.24 1.25.49 1.85.78l.87-1.8c-.59-.29-1.21-.55-1.84-.79a28.23 28.23 0 0 0 2.39-10.69h2v-2h-2a28.23 28.23 0 0 0 -2.39-10.69 21.6 21.6 0 0 0 3.09-1.44l-1-1.74a18.78 18.78 0 0 1 -3 1.37 28.09 28.09 0 0 0 -5.58-7.27 20.25 20.25 0 0 1 3.15.73l.59-1.91a22.76 22.76 0 0 0 -6.87-1 23 23 0 1 0 11.63 42.82l-1-1.73a21.05 21.05 0 0 1 -7.46 2.62zm-4.14-40.72v7.93a25.89 25.89 0 0 1 -5.73-.84 26.55 26.55 0 0 1 5.73-7.09zm-7.71 6.46a18.62 18.62 0 0 1 -4.79-2.56 20.85 20.85 0 0 1 10.34-4.67 27.74 27.74 0 0 0 -5.55 7.23zm7.71 3.47v9h-9a26.27 26.27 0 0 1 2.33-10 27.14 27.14 0 0 0 6.67 1zm0 11v9a27.63 27.63 0 0 0 -6.65 1 26.23 26.23 0 0 1 -2.33-10zm0 11v7.93a26.47 26.47 0 0 1 -5.73-7.08 25.28 25.28 0 0 1 5.73-.79zm-2.16 8.71a21 21 0 0 1 -10.34-4.62 18.93 18.93 0 0 1 4.79-2.56 27.81 27.81 0 0 0 5.55 7.24zm4.16-.78v-7.87a25.14 25.14 0 0 1 5.73.83 26.43 26.43 0 0 1 -5.73 7.1zm6.65-8.92a27 27 0 0 0 -6.65-1v-9h9a26.23 26.23 0 0 1 -2.35 10.06zm2.33-12h-9v-9a27.71 27.71 0 0 0 6.65-1 26.32 26.32 0 0 1 2.35 10.02zm-3.25-11.85a25.14 25.14 0 0 1 -5.73.84v-7.93a26.52 26.52 0 0 1 5.73 7.09zm-21.72-1.8a20.17 20.17 0 0 0 5.39 3 28.42 28.42 0 0 0 -2.38 10.68h-9a20.89 20.89 0 0 1 5.99-13.68zm-6 15.67h9a28.37 28.37 0 0 0 2.39 10.68 20.13 20.13 0 0 0 -5.39 3 20.93 20.93 0 0 1 -5.96-13.68z"></path></g></svg> 